<?xml version="1.0" encoding="UTF-8"?>
<svg width="44px" height="44px" viewBox="0 0 44 44" version="1.1" xmlns="http://www.w3.org/2000/svg" xmlns:xlink="http://www.w3.org/1999/xlink">
    <!-- Generator: Sketch 48.2 (47327) - http://www.bohemiancoding.com/sketch -->
    <title>edit</title>
    <desc>Created with Sketch.</desc>
    <defs></defs>
    <g id="edit" stroke="none" stroke-width="1" fill="none" fill-rule="evenodd">
        <path d="M36.9032258,0 C35.0718002,0 33.2403746,0.733333333 31.9583767,2.01666667 L24.9073881,9.16666667 L5.4942768,9.16666667 C2.47242456,9.16666667 0,11.6416667 0,14.6666667 L0,38.5 C0,41.525 2.47242456,44 5.4942768,44 L29.3028096,44 C32.3246618,44 34.7970864,41.525 34.7970864,38.5 L34.7970864,19.0666667 L41.9396462,11.9166667 C44.6867846,9.16666667 44.6867846,4.76666667 41.9396462,2.01666667 C40.566077,0.733333333 38.8262227,0 36.9032258,0 Z M31.1342352,38.5 C31.1342352,39.5083333 30.3100937,40.3333333 29.3028096,40.3333333 L5.4942768,40.3333333 C4.48699272,40.3333333 3.6628512,39.5083333 3.6628512,38.5 L3.6628512,14.6666667 C3.6628512,13.6583333 4.48699272,12.8333333 5.4942768,12.8333333 L21.2445369,12.8333333 L14.9261186,19.1583333 C11.2632674,22.825 9.15712799,27.775 9.24869927,33 C9.24869927,34.0083333 10.0728408,34.8333333 11.0801249,34.8333333 C16.2996878,34.8333333 21.2445369,32.8166667 24.9073881,29.15 L31.2258065,22.825 L31.2258065,38.5 L31.1342352,38.5 Z M39.2840791,9.35 L22.1602497,26.4916667 C19.6878252,28.9666667 16.3912591,30.6166667 12.9115505,30.9833333 C13.3694069,27.5 14.9261186,24.2 17.3985432,21.725 L34.5223725,4.58333333 C35.8959417,3.3 38.0020812,3.48333333 39.2840791,4.76666667 C40.4745057,6.14166667 40.4745057,8.06666667 39.2840791,9.35 Z" fill="#ADBAC9" fill-rule="nonzero"></path>
    </g>
</svg>