<?xml version="1.0" encoding="UTF-8"?>
<svg width="149px" height="28px" viewBox="0 0 149 28" version="1.1" xmlns="http://www.w3.org/2000/svg" xmlns:xlink="http://www.w3.org/1999/xlink">
    <!-- Generator: Sketch 48.2 (47327) - http://www.bohemiancoding.com/sketch -->
    <title>QUALENDAR</title>
    <desc>Created with Sketch.</desc>
    <defs></defs>
    <g id="logo" stroke="none" stroke-width="1" fill="none" fill-rule="evenodd">
        <path d="M16.2445404,23.6113329 L17.7557362,25.5947774 C18.2279849,26.1929591 18.7317169,26.822624 19.2984153,27.3893224 L18.5743006,27.9560209 C18.1335352,27.2948727 17.6612865,26.6652078 17.1575546,26.0040596 L15.5833923,23.9261654 C14.3240624,24.4298973 12.9073164,24.7132465 11.3331541,24.7132465 C4.8161222,24.7132465 0.817749977,20.1481759 0.817749977,12.7810964 C0.817749977,5.31956711 4.87908869,0.597080231 11.3331541,0.597080231 C17.850186,0.597080231 21.8485582,5.16215088 21.8485582,12.5607136 C21.8485582,17.8813822 19.770664,21.8167879 16.2445404,23.6113329 Z M14.0407132,20.7148743 L15.8352582,23.0761178 C19.2039655,21.438989 21.1244435,17.7554492 21.1244435,12.5607136 C21.1244435,5.53994983 17.472387,1.25822839 11.3331541,1.25822839 C5.22540439,1.25822839 1.54186463,5.60291632 1.54186463,12.7810964 C1.54186463,19.8333434 5.19392115,24.0520984 11.3331541,24.0520984 C12.7499001,24.0520984 14.0407132,23.8317157 15.1741101,23.359467 L13.4740148,21.1241565 C12.9387996,20.4000419 12.4980342,19.8648267 11.9313358,19.2981283 L12.6869337,18.7314298 C13.0962159,19.392578 13.5369813,20.0537262 14.0407132,20.7148743 Z M39.7488277,0.943395935 L40.6618419,0.943395935 C40.5988754,1.6045441 40.5673921,2.23420901 40.5673921,3.33612262 L40.5673921,16.1183204 C40.5673921,21.3445392 37.1672016,24.5873136 31.6891168,24.5873136 C26.211032,24.5873136 22.747875,21.313056 22.747875,16.1183204 L22.747875,3.33612262 C22.747875,2.23420901 22.7163917,1.6045441 22.6534252,0.943395935 L23.5664394,0.943395935 C23.5034729,1.6045441 23.4719896,2.23420901 23.4719896,3.33612262 L23.4719896,16.0868372 C23.4719896,20.935257 26.588831,23.9261654 31.6891168,23.9261654 C36.7894026,23.9261654 39.8432775,20.9667403 39.8432775,16.0868372 L39.8432775,3.33612262 C39.8432775,2.23420901 39.8117942,1.6045441 39.7488277,0.943395935 Z M49.2745539,3.30463937 L56.2953177,22.0371706 C56.5786669,22.8242518 56.9249826,23.6113329 57.3027816,24.3984141 L56.2953177,24.3984141 C56.1379015,23.6113329 55.823069,22.8242518 55.5397198,22.0371706 L52.9266104,15.0478901 L42.8519717,15.0478901 L40.2388623,22.0371706 C39.9555131,22.8242518 39.6721639,23.6113329 39.4832644,24.3984141 L38.4758005,24.3984141 C38.8535995,23.6113329 39.1999152,22.8242518 39.4832644,22.0371706 L46.5040282,3.30463937 C46.7873774,2.51755823 47.1336931,1.73047708 47.3225926,0.943395935 L48.4559895,0.943395935 C48.6448889,1.73047708 48.9912047,2.51755823 49.2745539,3.30463937 Z M43.1038377,14.3867419 L52.6432612,14.3867419 L47.889291,1.69899383 L43.1038377,14.3867419 Z M57.1946345,23.7372659 L68.6230527,23.7372659 C69.4101338,23.7372659 70.197215,23.7372659 70.9842961,23.6428162 L70.9842961,24.4928638 C70.197215,24.3984141 69.4101338,24.3984141 68.6230527,24.3984141 L58.80028,24.3984141 C58.0131989,24.3984141 57.1631512,24.3984141 56.3760701,24.4928638 C56.4705198,23.7057827 56.4705198,22.9187015 56.4705198,22.1316204 L56.4705198,3.36760586 C56.4705198,2.58052472 56.4705198,1.79344357 56.3760701,1.00636243 L57.2890842,1.00636243 C57.1946345,1.79344357 57.1946345,2.58052472 57.1946345,3.36760586 L57.1946345,23.7372659 Z M71.505814,23.7372659 L82.0527013,23.7372659 C82.8397825,23.7372659 83.6268636,23.7372659 84.4139448,23.6428162 L84.4139448,24.4928638 C83.6268636,24.3984141 82.8397825,24.3984141 82.0527013,24.3984141 L73.1114595,24.3984141 C72.3243784,24.3984141 71.4743307,24.3984141 70.6872496,24.4928638 C70.7816993,23.7057827 70.7816993,22.9187015 70.7816993,22.1316204 L70.7816993,3.24167288 C70.7816993,2.45459173 70.7816993,1.66751059 70.6872496,0.848946197 C71.4743307,0.943395935 72.3243784,0.943395935 73.1114595,0.943395935 L81.5804526,0.943395935 C82.3675338,0.943395935 83.1546149,0.943395935 83.9416961,0.848946197 L83.9416961,1.69899383 C83.1546149,1.6045441 82.3675338,1.6045441 81.5804526,1.6045441 L71.505814,1.6045441 L71.505814,12.3403309 L80.5100223,12.3403309 C81.2971034,12.3403309 82.0841846,12.3403309 82.8712657,12.2458812 L82.8712657,13.0959288 C82.0841846,13.0014791 81.2971034,13.0014791 80.5100223,13.0014791 L71.505814,13.0014791 L71.505814,23.7372659 Z M102.503114,3.30463937 L102.503114,22.0371706 C102.503114,22.8242518 102.503114,23.6113329 102.597564,24.3984141 L101.5901,24.3984141 C101.180817,23.5483664 100.708569,22.8242518 100.14187,22.0371706 L86.8874238,3.30463937 C86.4466584,2.7064577 86.0373762,2.10827603 85.5651275,1.51009436 L85.5651275,22.0371706 C85.5651275,22.8242518 85.5651275,23.6113329 85.6595772,24.3984141 L84.7465631,24.3984141 C84.8410129,23.6113329 84.8410129,22.8242518 84.8410129,22.0371706 L84.8410129,3.30463937 C84.8410129,2.51755823 84.8410129,1.73047708 84.7465631,0.943395935 L86.1318259,0.943395935 C86.6040746,1.73047708 87.1392898,2.51755823 87.7059882,3.30463937 L101.778999,23.1705675 L101.778999,3.30463937 C101.778999,2.51755823 101.778999,1.73047708 101.684549,0.943395935 L102.597564,0.943395935 C102.503114,1.73047708 102.503114,2.51755823 102.503114,3.30463937 Z M104.570181,0.943395935 L109.481567,0.943395935 C116.659748,0.943395935 120.689603,5.03621789 120.689603,12.3718142 C120.689603,19.8648267 116.533815,24.3984141 109.733433,24.3984141 L104.570181,24.3984141 C103.436784,24.3984141 102.807119,24.4298973 102.145971,24.4928638 C102.208938,23.8317157 102.240421,23.2020507 102.240421,22.1316204 L102.240421,3.21018963 C102.240421,2.10827603 102.208938,1.51009436 102.145971,0.848946197 C102.807119,0.911912689 103.436784,0.943395935 104.570181,0.943395935 Z M102.964536,23.7372659 L109.733433,23.7372659 C116.093049,23.7372659 119.965488,19.4555445 119.965488,12.3718142 C119.965488,5.44550009 116.187499,1.6045441 109.450084,1.6045441 L102.964536,1.6045441 L102.964536,23.7372659 Z M126.156861,3.30463937 L133.177625,22.0371706 C133.460974,22.8242518 133.80729,23.6113329 134.185089,24.3984141 L133.177625,24.3984141 C133.020208,23.6113329 132.705376,22.8242518 132.422027,22.0371706 L129.808917,15.0478901 L119.734279,15.0478901 L117.121169,22.0371706 C116.83782,22.8242518 116.554471,23.6113329 116.365571,24.3984141 L115.358108,24.3984141 C115.735907,23.6113329 116.082222,22.8242518 116.365571,22.0371706 L123.386335,3.30463937 C123.669684,2.51755823 124.016,1.73047708 124.2049,0.943395935 L125.338296,0.943395935 C125.527196,1.73047708 125.873512,2.51755823 126.156861,3.30463937 Z M119.986145,14.3867419 L129.525568,14.3867419 L124.771598,1.69899383 L119.986145,14.3867419 Z M141.664404,13.0644456 L147.331388,21.9427209 C147.83512,22.7612853 148.370335,23.6113329 149,24.3984141 L147.709187,24.3984141 C147.394354,23.5168832 146.953589,22.7298021 146.449857,21.9427209 L140.908806,13.2218618 L134.076941,13.2218618 L134.076941,22.0371706 C134.076941,22.8242518 134.076941,23.6113329 134.171391,24.3984141 L133.28986,24.3984141 C133.352827,23.6113329 133.352827,22.8242518 133.352827,22.0371706 L133.352827,3.21018963 C133.352827,1.73047708 133.321344,1.35267813 133.258377,0.848946197 C133.951008,0.911912689 134.580673,0.943395935 135.682587,0.943395935 L140.373591,0.943395935 C144.938661,0.943395935 147.457321,3.02129016 147.457321,6.83076291 C147.457321,10.1994702 145.662776,12.4347807 141.664404,13.0644456 Z M134.076941,12.5921969 L139.743926,12.5921969 C144.308996,12.5921969 146.733206,10.6087524 146.733206,6.86224615 C146.733206,3.39908911 144.466413,1.6045441 140.247658,1.6045441 L134.076941,1.6045441 L134.076941,12.5921969 Z" id="QUALENDAR" fill="#FFFFFF"></path>
    </g>
</svg>