<?xml version="1.0" encoding="UTF-8"?>
<svg width="23px" height="25px" viewBox="0 0 23 25" version="1.1" xmlns="http://www.w3.org/2000/svg" xmlns:xlink="http://www.w3.org/1999/xlink">
    <!-- Generator: Sketch 48.2 (47327) - http://www.bohemiancoding.com/sketch -->
    <title>trash</title>
    <desc>Created with Sketch.</desc>
    <defs></defs>
    <g id="delete-button" stroke="none" stroke-width="1" fill="none" fill-rule="evenodd" transform="translate(-38.000000, -7.000000)">
        <g id="trash" transform="translate(38.000000, 7.000000)" fill="#FFFFFF" fill-rule="nonzero">
            <path d="M0,8.2345679 C2.32137542e-16,9.37152447 0.936131887,10.2932099 2.09090909,10.2932099 L2.09090909,20.5864198 C2.09090909,22.8603329 3.96317286,24.7037037 6.27272727,24.7037037 L16.7272727,24.7037037 C19.0368271,24.7037037 20.9090909,22.8603329 20.9090909,20.5864198 L20.9090909,10.2932099 C22.0638681,10.2932099 23,9.37152447 23,8.2345679 L23,6.17592593 C23,5.03896936 22.0638681,4.11728395 20.9090909,4.11728395 L16.7272727,4.11728395 L16.7272727,2.05864198 C16.7272727,0.921685407 15.7911408,1.14277586e-16 14.6363636,0 L8.36363636,0 C7.20885916,-5.7138793e-17 6.27272727,0.921685407 6.27272727,2.05864198 L6.27272727,4.11728395 L2.09090909,4.11728395 C0.936131887,4.11728395 2.32137542e-16,5.03896936 0,6.17592593 L0,8.2345679 Z M18.8181818,20.5864198 C18.8181818,21.7233763 17.8820499,22.6450617 16.7272727,22.6450617 L6.27272727,22.6450617 C5.11795007,22.6450617 4.18181818,21.7233763 4.18181818,20.5864198 L4.18181818,10.2932099 L18.8181818,10.2932099 L18.8181818,20.5864198 Z M8.36363636,2.05864198 L14.6363636,2.05864198 L14.6363636,4.11728395 L8.36363636,4.11728395 L8.36363636,2.05864198 Z M2.09090909,6.17592593 L20.9090909,6.17592593 L20.9090909,8.2345679 L2.09090909,8.2345679 L2.09090909,6.17592593 Z" id="Shape"></path>
            <path d="M6.81481481,21.2962963 C7.2852796,21.2962963 7.66666667,20.8195625 7.66666667,20.2314815 L7.66666667,13.8425926 C7.66666667,13.2545116 7.2852796,12.7777778 6.81481481,12.7777778 C6.34435003,12.7777778 5.96296296,13.2545116 5.96296296,13.8425926 L5.96296296,20.2314815 C5.96296296,20.8195625 6.34435003,21.2962963 6.81481481,21.2962963 Z" id="Shape"></path>
            <path d="M11.0740741,21.2962963 C11.5445389,21.2962963 11.9259259,20.8195625 11.9259259,20.2314815 L11.9259259,13.8425926 C11.9259259,13.2545116 11.5445389,12.7777778 11.0740741,12.7777778 C10.6036093,12.7777778 10.2222222,13.2545116 10.2222222,13.8425926 L10.2222222,20.2314815 C10.2222222,20.8195625 10.6036093,21.2962963 11.0740741,21.2962963 Z" id="Shape"></path>
            <path d="M15.3333333,21.2962963 C15.8037981,21.2962963 16.1851852,20.8195625 16.1851852,20.2314815 L16.1851852,13.8425926 C16.1851852,13.2545116 15.8037981,12.7777778 15.3333333,12.7777778 C14.8628685,12.7777778 14.4814815,13.2545116 14.4814815,13.8425926 L14.4814815,20.2314815 C14.4814815,20.8195625 14.8628685,21.2962963 15.3333333,21.2962963 Z" id="Shape"></path>
        </g>
    </g>
</svg>